# xmcd
#
# Track frame offsets:
#	150
#	19350
#	34061
#	48529
#	61831
#	77792
#	90896
#	100548
#	120228
#	133399
#	144015
#	157378
#	168737
#	180353
#	192676
#	205867
#	223301
#	251148
#	271884
#	284336
#	301500
#	323405
#
# Disc length: 4578 seconds
#
# Revision: 2
# Processed by: cddbd v1.5.1PL0 Copyright (c) Steve Scherf et al.
# Submitted via: audiograbber 1.83.01
#
DISCID=3711e016
DTITLE=Ray Charles - The Definative Ray Charles
DYEAR=2001
DGENRE=Blues
TTITLE0=I Can't Stop Loving You
TTITLE1=Born To Lose
TTITLE2=You Don't Know Me
TTITLE3=You Are My Sunshine
TTITLE4=Your Cheatin' Heart
TTITLE5=Take These Chains From My Heart
TTITLE6=Busted
TTITLE7=That Lucky Old Sun
TTITLE8=Crying Time
TTITLE9=Cincinnati Kid
TTITLE10=Let's Go Get Stoned
TTITLE11=I Don't Need No Doctor
TTITLE12=In The Heat Of The Night
TTITLE13=Yesterday
TTITLE14=Eleanor Rigby
TTITLE15=I Can Make It Thru' The Days
TTITLE16=Rainy Night In Georgia
TTITLE17=The Jealous Kind
TTITLE18=Shake Your Tailfeather
TTITLE19=Seven Spanish Angels
TTITLE20=I'll Be Good To You
TTITLE21=Imagine
EXTD=
EXTT0=
EXTT1=
EXTT2=
EXTT3=
EXTT4=
EXTT5=
EXTT6=
EXTT7=
EXTT8=
EXTT9=
EXTT10=
EXTT11=
EXTT12=
EXTT13=
EXTT14=
EXTT15=
EXTT16=
EXTT17=
EXTT18=
EXTT19=
EXTT20=
EXTT21=
PLAYORDER=
